<svg data-v-1084b650="" xmlns="http://www.w3.org/2000/svg" viewBox="0 0 300 300">
    <!---->
    <!---->
    <rect data-v-1084b650="" fill="#fff" x="0" y="0" width="300px" height="300px" class="logo-background-square"></rect>
    <!---->
    <g data-v-1084b650="" id="bba3bd8a-7f5e-ed34-9a65-4ff5a4c9b5b7" fill="#000000" transform="matrix(1.9000000000000001,0,0,1.9000000000000001,33.93366066217422,155.89190039634704)">
        <path d="M8.05 13.12C8.06 13.15 8.09 13.16 8.11 13.17C8.18 13.26 8.26 13.30 8.37 13.30C8.57 13.30 8.72 13.15 8.72 12.96L8.72 3.93C8.72 3.75 8.57 3.60 8.37 3.60C8.19 3.60 8.04 3.75 8.04 3.93L8.04 11.91L2.10 3.68C2.00 3.53 1.78 3.50 1.62 3.60C1.50 3.70 1.46 3.84 1.50 3.98L1.50 12.96C1.50 13.15 1.65 13.30 1.83 13.30C2.02 13.30 2.17 13.15 2.17 12.96L2.17 4.94L8.05 13.12ZM11.86 12.96L11.86 12.96C11.86 13.15 12.01 13.30 12.19 13.30L12.19 13.30C12.39 13.30 12.54 13.15 12.54 12.96L12.54 3.84L12.54 3.84C12.54 3.65 12.39 3.50 12.19 3.50L12.19 3.50C12.01 3.50 11.86 3.65 11.86 3.84L11.86 12.96ZM18.56 12.96C18.56 13.15 18.72 13.30 18.90 13.30C19.08 13.30 19.24 13.15 19.24 12.96L19.24 4.19L22.19 4.19C22.37 4.19 22.53 4.03 22.53 3.84C22.53 3.65 22.37 3.50 22.19 3.50L15.61 3.50C15.43 3.50 15.27 3.65 15.27 3.84C15.27 4.03 15.43 4.19 15.61 4.19L18.56 4.19L18.56 12.96ZM31.47 13.30C34.17 13.30 36.37 11.12 36.37 8.41C36.37 5.71 34.17 3.50 31.47 3.50L29.68 3.50L29.64 3.50C29.46 3.50 29.30 3.65 29.30 3.84L29.30 12.96C29.30 13.15 29.44 13.29 29.61 13.30L29.67 13.30ZM29.99 12.61L29.99 4.19L31.47 4.19C33.80 4.20 35.69 6.08 35.69 8.41C35.69 10.74 33.80 12.61 31.47 12.61ZM44.69 13.08C44.74 13.22 44.88 13.30 45.01 13.30C45.05 13.30 45.08 13.29 45.14 13.29C45.30 13.22 45.39 13.01 45.32 12.84L41.92 3.75C41.87 3.63 41.73 3.54 41.58 3.54C41.44 3.54 41.30 3.63 41.24 3.75L37.84 12.84C37.77 13.01 37.87 13.22 38.04 13.29C38.08 13.29 38.14 13.30 38.16 13.30C38.30 13.30 38.43 13.22 38.49 13.08L39.35 10.77L43.82 10.77ZM41.59 4.82L43.57 10.08L39.61 10.08ZM48.64 12.96C48.64 13.15 48.79 13.30 48.97 13.30C49.15 13.30 49.31 13.15 49.31 12.96L49.31 4.19L52.26 4.19C52.44 4.19 52.60 4.03 52.60 3.84C52.60 3.65 52.44 3.50 52.26 3.50L45.68 3.50C45.50 3.50 45.35 3.65 45.35 3.84C45.35 4.03 45.50 4.19 45.68 4.19L48.64 4.19L48.64 12.96ZM60.07 13.08C60.13 13.22 60.27 13.30 60.40 13.30C60.44 13.30 60.47 13.29 60.52 13.29C60.69 13.22 60.77 13.01 60.70 12.84L57.30 3.75C57.26 3.63 57.12 3.54 56.97 3.54C56.83 3.54 56.69 3.63 56.63 3.75L53.23 12.84C53.16 13.01 53.26 13.22 53.42 13.29C53.47 13.29 53.52 13.30 53.55 13.30C53.69 13.30 53.82 13.22 53.87 13.08L54.74 10.77L59.21 10.77ZM56.98 4.82L58.95 10.08L54.99 10.08ZM66.65 8.36L66.65 8.36C66.65 11.09 68.94 13.30 71.75 13.30L71.75 13.30C72.95 13.30 74.06 12.89 74.91 12.24L74.91 12.24C75.07 12.12 75.10 11.87 74.96 11.75L74.96 11.75C74.86 11.58 74.63 11.55 74.47 11.66L74.47 11.66C73.74 12.28 72.79 12.61 71.75 12.61L71.75 12.61C69.30 12.61 67.34 10.70 67.34 8.36L67.34 8.36C67.34 5.96 69.30 4.05 71.75 4.05L71.75 4.05C72.79 4.05 73.74 4.41 74.49 5.00L74.49 5.00C74.63 5.11 74.86 5.10 74.97 4.93L74.97 4.93C75.10 4.80 75.07 4.56 74.91 4.44L74.91 4.44C74.06 3.78 72.95 3.36 71.75 3.36L71.75 3.36C68.94 3.37 66.65 5.57 66.65 8.36ZM77.88 12.96C77.88 13.15 78.02 13.29 78.19 13.30L78.22 13.30L78.26 13.30L83.26 13.30C83.45 13.30 83.59 13.15 83.59 12.96C83.59 12.77 83.45 12.61 83.26 12.61L78.57 12.61L78.57 8.75L82.67 8.75C82.85 8.75 83.01 8.60 83.01 8.41C83.01 8.22 82.85 8.06 82.67 8.06L78.57 8.06L78.57 4.19L83.26 4.19C83.45 4.19 83.59 4.03 83.59 3.84C83.59 3.65 83.45 3.50 83.26 3.50L78.25 3.50L78.22 3.50C78.04 3.50 77.88 3.65 77.88 3.84L77.88 12.96ZM92.78 13.12C92.79 13.15 92.82 13.16 92.83 13.17C92.90 13.26 92.99 13.30 93.10 13.30C93.30 13.30 93.45 13.15 93.45 12.96L93.45 3.93C93.45 3.75 93.30 3.60 93.10 3.60C92.92 3.60 92.76 3.75 92.76 3.93L92.76 11.91L86.83 3.68C86.73 3.53 86.51 3.50 86.35 3.60C86.23 3.70 86.18 3.84 86.23 3.98L86.23 12.96C86.23 13.15 86.38 13.30 86.56 13.30C86.74 13.30 86.90 13.15 86.90 12.96L86.90 4.94L92.78 13.12ZM99.37 12.96C99.37 13.15 99.53 13.30 99.71 13.30C99.89 13.30 100.04 13.15 100.04 12.96L100.04 4.19L103.00 4.19C103.18 4.19 103.33 4.03 103.33 3.84C103.33 3.65 103.18 3.50 103.00 3.50L96.42 3.50C96.24 3.50 96.08 3.65 96.08 3.84C96.08 4.03 96.24 4.19 96.42 4.19L99.37 4.19L99.37 12.96ZM105.91 12.96C105.91 13.15 106.05 13.29 106.22 13.30L106.25 13.30L106.29 13.30L111.29 13.30C111.48 13.30 111.62 13.15 111.62 12.96C111.62 12.77 111.48 12.61 111.29 12.61L106.60 12.61L106.60 8.75L110.70 8.75C110.88 8.75 111.03 8.60 111.03 8.41C111.03 8.22 110.88 8.06 110.70 8.06L106.60 8.06L106.60 4.19L111.29 4.19C111.48 4.19 111.62 4.03 111.62 3.84C111.62 3.65 111.48 3.50 111.29 3.50L106.27 3.50L106.25 3.50C106.06 3.50 105.91 3.65 105.91 3.84L105.91 12.96ZM119.63 12.70C119.78 13.01 120.08 13.15 120.26 13.15L120.29 13.15C120.37 13.15 120.44 13.13 120.46 13.13C120.64 13.06 120.72 12.87 120.68 12.68C120.62 12.53 120.46 12.45 120.30 12.46C120.29 12.45 120.22 12.39 120.16 12.22C120.09 12.01 120.04 11.66 120.04 11.09C120.04 9.98 119.36 9.27 118.72 8.90C118.66 8.88 118.62 8.86 118.58 8.83C119.53 8.39 120.19 7.42 120.19 6.30C120.19 4.75 118.94 3.50 117.40 3.50L114.67 3.50L114.63 3.50L114.60 3.50C114.44 3.51 114.30 3.67 114.30 3.84L114.30 12.96C114.30 13.15 114.45 13.30 114.63 13.30C114.83 13.30 114.98 13.15 114.98 12.96L114.98 9.09L117.36 9.09C117.38 9.09 117.39 9.10 117.43 9.11C117.61 9.14 118.13 9.30 118.57 9.60C119 9.93 119.36 10.37 119.36 11.09C119.36 11.91 119.46 12.38 119.63 12.70ZM119.52 6.30C119.52 7.45 118.59 8.39 117.46 8.41L117.33 8.41L114.98 8.41L114.98 4.19L117.40 4.19C118.57 4.19 119.52 5.12 119.52 6.30Z"></path>
    </g>
    <linearGradient data-v-1084b650="" gradientTransform="rotate(25)" id="279d5f97-d96b-adb2-5ab1-2472e55f98ca" x1="0%" y1="0%" x2="100%" y2="0%">
        <stop data-v-1084b650="" offset="0%" style="stop-color: rgb(121, 217, 151); stop-opacity: 1;"></stop>
        <stop data-v-1084b650="" offset="100%" style="stop-color: rgb(89, 201, 150); stop-opacity: 1;"></stop>
    </linearGradient>
    <g data-v-1084b650="" id="a2889ca9-5245-706a-d24c-3c740111f767" fill="url(#279d5f97-d96b-adb2-5ab1-2472e55f98ca)" stroke="none" transform="matrix(0.1691748364053273,0,0,0.1691748364053273,124.62377453920091,112.34786735974868)">
        <svg xmlns="http://www.w3.org/2000/svg" xmlns:xlink="http://www.w3.org/1999/xlink" version="1.1" x="0px" y="0px" viewBox="0 0 100 100" style="enable-background:new 0 0 100 100;" xml:space="preserve">
            <polygon points="78.898,47.384 61.008,17.777 49.178,37.355 51.479,32.884 51.479,32.884 56.264,23.581 49.742,12.788   40.969,27.306 44.143,34.527 36.676,22.17 21.102,47.944 36.676,73.723 38.533,70.649 48.539,87.212 57.863,71.782 61.008,76.985   "></polygon>
        </svg>
    </g>
</svg>