<svg data-v-1084b650="" xmlns="http://www.w3.org/2000/svg" viewBox="0 0 300 300">
    <!---->
    <!---->
    <rect data-v-1084b650="" fill="#eaeaea" x="0" y="0" width="300px" height="300px" class="logo-background-square"></rect>
    <!---->
    <g data-v-1084b650="" id="029f58a2-7bbe-5f72-0669-b025ce679ee8" fill="#000000" transform="matrix(2.2,0,0,2.2,28.05399818420409,156.83650035858153)">
        <path d="M8.25 13.17C8.25 13.19 8.25 13.19 8.26 13.19C8.29 13.26 8.36 13.30 8.43 13.30C8.53 13.30 8.60 13.22 8.60 13.12L8.60 3.75C8.60 3.65 8.53 3.57 8.43 3.57C8.34 3.57 8.25 3.65 8.25 3.75L8.25 12.57L1.78 3.58C1.72 3.51 1.62 3.50 1.53 3.56C1.48 3.60 1.46 3.65 1.46 3.71L1.46 3.75L1.46 13.12C1.46 13.22 1.55 13.30 1.64 13.30C1.74 13.30 1.81 13.22 1.81 13.12L1.81 4.23L8.25 13.17ZM11.86 13.12L11.86 13.12C11.86 13.23 11.93 13.30 12.04 13.30L12.04 13.30C12.12 13.30 12.21 13.23 12.21 13.12L12.21 3.68L12.21 3.68C12.21 3.57 12.12 3.50 12.04 3.50L12.04 3.50C11.93 3.50 11.86 3.57 11.86 3.68L11.86 13.12ZM18.69 13.12C18.69 13.22 18.76 13.30 18.87 13.30C18.96 13.30 19.05 13.22 19.05 13.12L19.05 3.85L22.27 3.85C22.39 3.85 22.46 3.78 22.46 3.68C22.46 3.58 22.39 3.50 22.27 3.50L15.46 3.50C15.36 3.50 15.27 3.58 15.27 3.68C15.27 3.78 15.36 3.85 15.46 3.85L18.69 3.85L18.69 13.12ZM29.30 13.12C29.30 13.22 29.37 13.30 29.48 13.30L29.50 13.30L31.36 13.30C34.08 13.30 36.26 11.10 36.26 8.39C36.26 5.70 34.08 3.50 31.36 3.50L29.50 3.50L29.48 3.50C29.37 3.50 29.30 3.58 29.30 3.68ZM29.65 12.95L29.65 3.85L31.36 3.85C33.88 3.85 35.90 5.89 35.91 8.39C35.90 10.91 33.88 12.92 31.36 12.95ZM43.51 6.44C43.40 6.44 43.33 6.54 43.33 6.62L43.33 8.33C42.80 7.22 41.71 6.44 40.45 6.44C38.65 6.44 37.21 7.99 37.21 9.87C37.21 11.75 38.65 13.30 40.45 13.30C41.71 13.30 42.80 12.53 43.33 11.41L43.33 13.12C43.33 13.23 43.40 13.30 43.51 13.30C43.61 13.30 43.68 13.23 43.68 13.12L43.68 6.62C43.68 6.54 43.61 6.44 43.51 6.44ZM40.45 12.95C38.86 12.95 37.56 11.58 37.56 9.87C37.56 8.18 38.86 6.80 40.45 6.80C42.03 6.80 43.33 8.18 43.33 9.87C43.33 11.58 42.03 12.95 40.45 12.95ZM48.73 6.44L47.61 6.44L47.61 3.70C47.61 3.60 47.53 3.51 47.43 3.51C47.33 3.51 47.26 3.60 47.26 3.70L47.26 3.70L47.26 6.44L46.09 6.44C45.99 6.44 45.91 6.52 45.91 6.62C45.91 6.72 45.99 6.79 46.09 6.79L47.26 6.79L47.26 12.25C47.26 12.84 47.74 13.31 48.33 13.31C48.43 13.31 48.51 13.23 48.51 13.13C48.51 13.03 48.43 12.96 48.33 12.96C47.94 12.96 47.61 12.64 47.61 12.25L47.61 6.79L48.73 6.79C48.83 6.79 48.92 6.72 48.92 6.62C48.92 6.52 48.83 6.44 48.73 6.44ZM57.36 6.44C57.25 6.44 57.18 6.54 57.18 6.62L57.18 8.33C56.64 7.22 55.55 6.44 54.29 6.44C52.50 6.44 51.06 7.99 51.06 9.87C51.06 11.75 52.50 13.30 54.29 13.30C55.55 13.30 56.64 12.53 57.18 11.41L57.18 13.12C57.18 13.23 57.25 13.30 57.36 13.30C57.46 13.30 57.53 13.23 57.53 13.12L57.53 6.62C57.53 6.54 57.46 6.44 57.36 6.44ZM54.29 12.95C52.71 12.95 51.41 11.58 51.41 9.87C51.41 8.18 52.71 6.80 54.29 6.80C55.87 6.80 57.18 8.18 57.18 9.87C57.18 11.58 55.87 12.95 54.29 12.95ZM64.39 8.32L64.39 8.32C64.39 11.06 66.67 13.29 69.47 13.30L69.47 13.30C70.67 13.30 71.76 12.88 72.65 12.22L72.65 12.22C72.73 12.15 72.76 12.04 72.69 11.97L72.69 11.97C72.62 11.89 72.51 11.89 72.42 11.94L72.42 11.94L72.42 11.94C71.61 12.57 70.59 12.94 69.47 12.94L69.47 12.94C66.88 12.94 64.75 10.88 64.75 8.32L64.75 8.32C64.75 5.78 66.88 3.72 69.47 3.72L69.47 3.72C70.60 3.72 71.62 4.09 72.44 4.72L72.44 4.72C72.51 4.79 72.62 4.77 72.70 4.69L72.70 4.69C72.76 4.62 72.73 4.51 72.65 4.44L72.65 4.44C71.79 3.78 70.67 3.36 69.47 3.36L69.47 3.36C66.67 3.36 64.39 5.60 64.39 8.32ZM78.16 13.30C79.31 13.30 80.33 12.66 80.92 11.75C80.98 11.66 80.95 11.55 80.88 11.51C80.78 11.47 80.68 11.47 80.63 11.55C80.11 12.39 79.20 12.95 78.16 12.95C76.51 12.94 75.18 11.55 75.18 9.87L75.18 9.83L81.28 9.83C81.37 9.83 81.44 9.74 81.45 9.66L81.45 9.65L81.45 9.62L81.45 9.60C81.33 7.83 79.91 6.44 78.16 6.44C76.33 6.44 74.86 7.97 74.83 9.87C74.86 11.75 76.33 13.27 78.16 13.30ZM78.16 6.80C79.66 6.80 80.92 7.97 81.10 9.49L75.19 9.49C75.38 7.97 76.64 6.80 78.16 6.80ZM89.03 13.12C89.03 13.22 89.08 13.30 89.19 13.30C89.29 13.30 89.38 13.22 89.38 13.12L89.38 9.21C89.38 7.67 88.13 6.44 86.62 6.44C85.58 6.44 84.67 7.01 84.20 7.87L84.20 6.61C84.20 6.50 84.13 6.44 84.03 6.44C83.93 6.44 83.85 6.50 83.85 6.61L83.85 9.10L83.85 9.21L83.85 13.12L83.85 13.15C83.85 13.17 83.86 13.20 83.87 13.22C83.87 13.23 83.87 13.23 83.89 13.24C83.90 13.26 83.92 13.27 83.93 13.27C83.94 13.29 83.96 13.29 83.97 13.30L84 13.30L84.03 13.30C84.08 13.30 84.13 13.27 84.15 13.23C84.18 13.20 84.20 13.16 84.20 13.12L84.20 9.21C84.20 7.85 85.30 6.79 86.62 6.79C87.93 6.79 89.03 7.85 89.03 9.21L89.03 13.12ZM94.54 6.44L93.42 6.44L93.42 3.70C93.42 3.60 93.34 3.51 93.24 3.51C93.14 3.51 93.07 3.60 93.07 3.70L93.07 3.70L93.07 6.44L91.90 6.44C91.80 6.44 91.71 6.52 91.71 6.62C91.71 6.72 91.80 6.79 91.90 6.79L93.07 6.79L93.07 12.25C93.07 12.84 93.55 13.31 94.14 13.31C94.23 13.31 94.32 13.23 94.32 13.13C94.32 13.03 94.23 12.96 94.14 12.96C93.74 12.96 93.42 12.64 93.42 12.25L93.42 6.79L94.54 6.79C94.64 6.79 94.72 6.72 94.72 6.62C94.72 6.52 94.64 6.44 94.54 6.44ZM100.31 13.30C101.46 13.30 102.48 12.66 103.07 11.75C103.12 11.66 103.10 11.55 103.03 11.51C102.93 11.47 102.83 11.47 102.77 11.55C102.26 12.39 101.35 12.95 100.31 12.95C98.66 12.94 97.33 11.55 97.33 9.87L97.33 9.83L103.43 9.83C103.52 9.83 103.59 9.74 103.60 9.66L103.60 9.65L103.60 9.62L103.60 9.60C103.47 7.83 102.06 6.44 100.31 6.44C98.48 6.44 97.01 7.97 96.98 9.87C97.01 11.75 98.48 13.27 100.31 13.30ZM100.31 6.80C101.81 6.80 103.07 7.97 103.25 9.49L97.34 9.49C97.52 7.97 98.78 6.80 100.31 6.80ZM105.71 13.12C105.71 13.23 105.80 13.30 105.88 13.30C105.99 13.30 106.05 13.23 106.05 13.12L106.05 9.91C106.05 9.91 106.11 9.74 106.22 9.44C106.40 9.00 106.74 8.30 107.23 7.74C107.69 7.22 108.35 6.80 109.21 6.80C109.33 6.80 109.40 6.72 109.40 6.62C109.40 6.52 109.33 6.44 109.21 6.44C107.90 6.44 107.02 7.34 106.48 8.13C106.30 8.41 106.16 8.69 106.05 8.95L106.05 6.62C106.05 6.52 105.99 6.44 105.88 6.44C105.80 6.44 105.71 6.52 105.71 6.62L105.71 9.83C105.70 9.87 105.70 9.88 105.71 9.91L105.71 13.12Z"></path>
    </g>
    <linearGradient data-v-1084b650="" gradientTransform="rotate(25)" id="2b48970e-a9de-ba1c-bf18-f0cf37ff6ca4" x1="0%" y1="0%" x2="100%" y2="0%">
        <stop data-v-1084b650="" offset="0%" style="stop-color: rgb(0, 102, 120); stop-opacity: 1;"></stop>
        <stop data-v-1084b650="" offset="100%" style="stop-color: rgb(89, 201, 150); stop-opacity: 1;"></stop>
    </linearGradient>
    <g data-v-1084b650="" id="954de5b8-332b-0e9e-1d20-ecca215ff8fb" fill="url(#2b48970e-a9de-ba1c-bf18-f0cf37ff6ca4)" stroke="none" transform="matrix(0.1960837262468996,0,0,0.1960837262468996,120.58744106296503,106.35893360968538)">
        <svg xmlns="http://www.w3.org/2000/svg" xmlns:xlink="http://www.w3.org/1999/xlink" version="1.1" x="0px" y="0px" viewBox="0 0 100 100" style="enable-background:new 0 0 100 100;" xml:space="preserve">
            <polygon points="78.898,47.384 61.008,17.777 49.178,37.355 51.479,32.884 51.479,32.884 56.264,23.581 49.742,12.788   40.969,27.306 44.143,34.527 36.676,22.17 21.102,47.944 36.676,73.723 38.533,70.649 48.539,87.212 57.863,71.782 61.008,76.985   "></polygon>
        </svg>
    </g>
</svg>