<?xml version="1.0" standalone="no"?><!DOCTYPE svg PUBLIC "-//W3C//DTD SVG 1.1//EN" "http://www.w3.org/Graphics/SVG/1.1/DTD/svg11.dtd"><svg t="1547043759224" class="icon" style="" viewBox="0 0 1024 1024" version="1.1" xmlns="http://www.w3.org/2000/svg" p-id="14062" data-spm-anchor-id="a313x.7781069.0.i3" xmlns:xlink="http://www.w3.org/1999/xlink" width="200" height="200"><defs><style type="text/css"></style></defs><path d="M947.2 238.933333h-34.133333c0-65.877333-38.229333-119.466667-85.333334-119.466666V85.333333c65.877333 0 119.466667 68.266667 119.466667 153.6z" fill="#5387f4" p-id="14063" data-spm-anchor-id="a313x.7781069.0.i4" class="selected"></path><path d="M793.6 34.133333c103.594667 0 187.733333 99.498667 187.733333 221.866667 0 102.4-58.88 190.805333-143.018666 215.210667a34.133333 34.133333 0 0 0-24.576 34.133333L827.733333 955.733333a34.133333 34.133333 0 0 1-68.266666 0l27.989333-446.976a34.133333 34.133333 0 0 0-26.965333-35.498666C670.890667 455.168 605.866667 363.52 605.866667 256c0-122.368 84.138667-221.866667 187.733333-221.866667m0-34.133333c-122.538667 0-221.866667 114.688-221.866667 256 0 125.44 78.336 229.717333 181.589334 251.562667L725.333333 955.733333a68.266667 68.266667 0 0 0 136.533334 0l-14.165334-451.754666C944.128 475.989333 1015.466667 375.466667 1015.466667 256c0-141.312-99.328-256-221.866667-256zM332.8 0h-34.133333v341.333333h34.133333V0zM196.266667 0H162.133333v341.333333h34.133334V0zM264.533333 494.933333h-34.133333v529.066667h34.133333V494.933333z" fill="#333333" p-id="14064"></path><path d="M247.466667 529.066667C115.712 529.066667 8.533333 404.48 8.533333 251.221333V0h34.133334v251.221333C42.666667 385.536 134.485333 494.933333 247.466667 494.933333s204.8-109.397333 204.8-243.712V0h34.133333v251.221333C486.4 404.48 379.221333 529.066667 247.466667 529.066667z" fill="#333333" p-id="14065"></path></svg>