<?xml version="1.0" standalone="no"?><!DOCTYPE svg PUBLIC "-//W3C//DTD SVG 1.1//EN" "http://www.w3.org/Graphics/SVG/1.1/DTD/svg11.dtd"><svg t="1547044416929" class="icon" style="" viewBox="0 0 1024 1024" version="1.1" xmlns="http://www.w3.org/2000/svg" p-id="5420" xmlns:xlink="http://www.w3.org/1999/xlink" width="200" height="200"><defs><style type="text/css"></style></defs><path d="M624.3 387l61.7-61.6-2-2.4c-15.8-19.1-23.8-43.3-22.6-68.2 1.2-25 11.6-48.5 29.3-66.2 18.9-18.9 44-29.4 70.8-29.4 26.7 0 51.9 10.4 71 29.4 18.9 18.9 29.3 44 29.4 70.7v3.3h3.3c26.7 0 51.8 10.4 70.7 29.3 39 39 39 102.7 0.1 141.9-18.9 18.9-44 29.4-70.8 29.4-22.4 0-44.3-7.5-61.7-21.2l-2.3-1.8-68.9 68.7" fill="#FF9D00" p-id="5421"></path><path d="M378.6 477.8c-149.5 0.1-271.1 121.8-271.1 271.4 0 149.7 121.8 271.5 271.5 271.5 71.8 0 139.5-27.8 190.6-78.1 50.9-50.4 79.7-117.6 80.9-189.2l0.3-25.6 20.3-15.3c46.1-34.4 72.5-87.1 72.5-144.7 0-99.7-81.1-180.7-180.8-180.7-56.4 0-108.6 25.7-143.2 70.6l-15.5 20.2-25.5-0.1z" fill="#FF9D00" p-id="5422"></path><path d="M582 116.1a2.4 13.1 0 1 0 4.8 0 2.4 13.1 0 1 0-4.8 0Z" fill="#46A3FB" p-id="5423"></path><path d="M593.715219 114.512412a13.1 2.4 60 1 0 4.156921-2.4 13.1 2.4 60 1 0-4.156921 2.4Z" fill="#46A3FB" p-id="5424"></path><path d="M603.067359 107.201925a13.1 2.4 30 1 0 2.4-4.156922 13.1 2.4 30 1 0-2.4 4.156922Z" fill="#46A3FB" p-id="5425"></path><path d="M594.4 93.8a13.1 2.4 0 1 0 26.2 0 13.1 2.4 0 1 0-26.2 0Z" fill="#46A3FB" p-id="5426"></path><path d="M593.32596 88.951369a2.4 13.1 60 1 0 22.689865-13.1 2.4 13.1 60 1 0-22.689865 13.1Z" fill="#46A3FB" p-id="5427"></path><path d="M589.994553 85.3781a2.4 13.1 30 1 0 13.1-22.689865 2.4 13.1 30 1 0-13.1 22.689865Z" fill="#46A3FB" p-id="5428"></path><path d="M582.8 70.7a2.4 13.1 0 1 0 4.8 0 2.4 13.1 0 1 0-4.8 0Z" fill="#46A3FB" p-id="5429"></path><path d="M571.730888 74.810892a13.1 2.4 60 1 0 4.156922-2.4 13.1 2.4 60 1 0-4.156922 2.4Z" fill="#46A3FB" p-id="5430"></path><path d="M564.168519 83.783935a13.1 2.4 30 1 0 2.4-4.156922 13.1 2.4 30 1 0-2.4 4.156922Z" fill="#46A3FB" p-id="5431"></path><path d="M549 93a13.1 2.4 0 1 0 26.2 0 13.1 2.4 0 1 0-26.2 0Z" fill="#46A3FB" p-id="5432"></path><path d="M553.62444 110.935699a2.4 13.1 60 1 0 22.689866-13.1 2.4 13.1 60 1 0-22.689866 13.1Z" fill="#46A3FB" p-id="5433"></path><path d="M566.576196 124.278306a2.4 13.1 30 1 0 13.1-22.689866 2.4 13.1 30 1 0-13.1 22.689866Z" fill="#46A3FB" p-id="5434"></path><path d="M499.3 196.2m-15.9 0a15.9 15.9 0 1 0 31.8 0 15.9 15.9 0 1 0-31.8 0Z" fill="#2C65AF" p-id="5435"></path><path d="M796.392496 85.728454a11.3 11.3 0 1 0 22.214121-4.158464 11.3 11.3 0 1 0-22.214121 4.158464Z" fill="#46A3FB" p-id="5436"></path><path d="M720.5 3.3c2.5 0 4.5 2 4.5 4.5v48.8c0 2.5-2 4.5-4.5 4.5s-4.5-2-4.5-4.5V7.8c0.1-2.5 2.1-4.5 4.5-4.5z" fill="#E61F19" p-id="5437"></path><path d="M696.1 27.7h48.8c2.5 0 4.5 2 4.5 4.5s-2 4.5-4.5 4.5h-48.8c-2.5 0-4.5-2-4.5-4.5 0.1-2.5 2.1-4.5 4.5-4.5z" fill="#E61F19" p-id="5438"></path><path d="M925.7 96.1c22.3 0 40.5 18 40.5 40.1s-18.2 40.1-40.5 40.1-40.5-18-40.5-40.1 18.2-40.1 40.5-40.1z m0 69.6c16.4 0 29.8-13.2 29.8-29.5s-13.4-29.5-29.8-29.5-29.8 13.2-29.8 29.5 13.4 29.5 29.8 29.5z" fill="#E62A52" p-id="5439"></path><path d="M692.8 484.3c-3.8 0-7.7-1.5-10.6-4.4-5.9-5.9-5.8-15.4 0-21.2l78.3-78.1 12.8 10.1c14.8 11.6 33.4 18 52.4 18 22.8 0 44.2-8.9 60.2-25 33.1-33.3 33.1-87.5 0-120.7-16.1-16.1-37.4-24.9-60.1-24.9h-18.3v-18.3c-0.1-22.7-8.9-44.1-25-60.2-16.2-16.1-37.6-25-60.3-25-22.8 0-44.2 8.9-60.2 25-15.1 15.1-23.9 35-24.9 56.3-1 21.1 5.8 41.7 19.2 58l10.6 12.9-71.3 71.2c-5.9 5.9-15.4 5.9-21.2 0-5.9-5.9-5.9-15.4 0-21.2l52.4-52.3c-13.9-20.4-20.8-44.9-19.6-69.9 1.3-28.8 13.3-55.8 33.7-76.1 21.7-21.8 50.6-33.8 81.4-33.8 30.7 0 59.7 12 81.5 33.7 19.1 19.1 30.7 43.7 33.2 70.2 26.5 2.5 51.1 14.1 70.2 33.2 44.8 44.9 44.8 118 0.1 163-21.7 21.8-50.7 33.8-81.5 33.8-22.2 0-44-6.5-62.5-18.4l-59.8 59.7c-3.1 2.9-6.9 4.4-10.7 4.4z" fill="" p-id="5440"></path><path d="M95.8 604.9c-2.2 0-4.5-0.5-6.6-1.5-7.4-3.7-10.5-12.7-6.8-20.1 26.6-54 70.7-99.3 124-127.4 7.3-3.9 16.4-1 20.3 6.3 3.9 7.3 1 16.4-6.3 20.3-47.8 25.2-87.2 65.7-111.1 114.1-2.6 5.3-7.9 8.3-13.5 8.3z" fill="" p-id="5441"></path><path d="M597.5 809.2c-1.5 0-3.1-0.2-4.7-0.8-7.9-2.6-12.2-11.1-9.6-18.9 8-24.5 12.3-50.1 12.8-76.1l0.4-32.9 26.2-19.7c42.3-31.6 66.5-79.9 66.5-132.7 0-91.4-74.4-165.7-165.8-165.7-51.7 0-99.6 23.6-131.4 64.8l-20 26-32.9 0.1c-20.7 0-41.2 2.5-61.1 7.4-8 2-16.2-2.9-18.2-11-2-8 2.9-16.2 11-18.2 22.2-5.5 45.2-8.2 68.2-8.3H357l11-14.3c37.5-48.6 94-76.5 155.1-76.5 107.9 0 195.8 87.8 195.8 195.7 0 62.4-28.6 119.5-78.5 156.7L626 695.6l-0.2 18.2c-0.5 29.1-5.3 57.7-14.3 85-1.8 6.4-7.7 10.4-14 10.4z" fill="" p-id="5442"></path><path d="M339.5 996C181.6 996 53 867.5 53 709.5c0-16 1.3-32.2 4-47.9 1.4-8.2 9.1-13.7 17.3-12.3 8.2 1.4 13.7 9.1 12.3 17.3-2.4 14.1-3.6 28.5-3.6 42.9C83 850.9 198.1 966 339.5 966c67.8 0 131.8-26.2 180.1-73.8 8.9-8.8 17.1-18.2 24.6-28.1 5-6.6 14.4-7.9 21-2.9s7.9 14.4 2.9 21c-8.3 11-17.6 21.6-27.5 31.3-53.9 53.2-125.3 82.5-201.1 82.5z" fill="" p-id="5443"></path><path d="M168.5 807.1c-5.5 0-10.8-3-13.4-8.3-9.8-19.5-18.2-39.7-24.9-60.2-2.6-7.9 1.7-16.4 9.5-19 7.9-2.6 16.4 1.7 19 9.5 6.3 19.1 14.2 38 23.3 56.1 3.7 7.4 0.7 16.4-6.7 20.1-2.2 1.3-4.5 1.8-6.8 1.8zM267.7 938c-3.6 0-7.2-1.3-10.1-3.9-26.9-24.6-50.9-52.3-71.3-82.1-4.7-6.8-2.9-16.2 3.9-20.8 6.8-4.7 16.2-2.9 20.8 3.9 19.1 28 41.5 53.8 66.7 76.9 6.1 5.6 6.5 15.1 0.9 21.2-2.8 3.1-6.8 4.8-10.9 4.8z" fill="#FFFFFF" p-id="5444"></path></svg>