<?xml version="1.0" standalone="no"?><!DOCTYPE svg PUBLIC "-//W3C//DTD SVG 1.1//EN" "http://www.w3.org/Graphics/SVG/1.1/DTD/svg11.dtd"><svg t="1549953869585" class="icon" style="" viewBox="0 0 1024 1024" version="1.1" xmlns="http://www.w3.org/2000/svg" p-id="3227" id="mx_n_1549953869590" xmlns:xlink="http://www.w3.org/1999/xlink" width="200" height="200"><defs><style type="text/css"></style></defs><path d="M595.76 732.27h167.86v138.27h162.2a17.45 17.45 0 0 0 17.39-17.39V731.24H595.76z" fill="#EF6A6A" p-id="3228"></path><path d="M424.28 735.91V590.4h171.48v-5.72h347.45V255.61a47.53 47.53 0 0 0-47.39-47.39H128.18a47.53 47.53 0 0 0-47.39 47.39v597.54a17.45 17.45 0 0 0 17.39 17.39h494V735.91z m0-155.91h-343V433.45h343z" fill="#EF6A6A" p-id="3229"></path><path d="M81.27 433.45h343V580h-343zM949.68 584.68H595.76v146.56h353.92V584.68z" fill="#C5EAFF" p-id="3230"></path><path d="M595.76 732.27V590.4H424.28v145.51h167.86v141.87h171.48V732.27H595.76z" fill="#F9DB91" p-id="3231"></path><path d="M900 195.32h-86.94c-3.82-30.86-28.55-54.75-58.41-54.75s-54.59 23.9-58.41 54.75h-44.95c-3.82-30.86-28.55-54.75-58.41-54.75s-54.59 23.9-58.41 54.75h-44.94c-3.82-30.86-28.55-54.75-58.41-54.75s-54.59 23.9-58.41 54.75h-44.94c-3.82-30.86-28.55-54.75-58.41-54.75s-54.59 23.9-58.41 54.75H124a60.18 60.18 0 0 0-60 60v598.11a30.09 30.09 0 0 0 30 30h836a30.09 30.09 0 0 0 30-30V255.32a60.18 60.18 0 0 0-60-60z m-145.36-28.75c15.62 0 28.73 12.31 32.09 28.75h-64.18c3.37-16.45 16.45-28.75 32.09-28.75z m-161.76 0c15.62 0 28.73 12.31 32.09 28.75h-64.18c3.36-16.45 16.47-28.75 32.09-28.75z m-161.76 0c15.62 0 28.73 12.31 32.09 28.75H399c3.39-16.45 16.5-28.75 32.12-28.75z m-161.76 0c15.62 0 28.73 12.31 32.09 28.75h-64.19c3.37-16.45 16.47-28.75 32.09-28.75zM100 231.33a33.74 33.74 0 0 1 24-10h88.79c7.16 26.19 29.8 45.39 56.56 45.39a56 56 0 0 0 29.46-8.42 13 13 0 0 0-13.67-22.12 29.64 29.64 0 0 1-15.79 4.54c-12.48 0-23.35-7.85-28.94-19.39h134.14c7.16 26.19 29.8 45.39 56.56 45.39a56 56 0 0 0 29.46-8.42 13 13 0 0 0-13.67-22.12 29.65 29.65 0 0 1-15.79 4.54c-12.48 0-23.35-7.85-28.94-19.39h134.15c7.16 26.19 29.8 45.39 56.57 45.39a56 56 0 0 0 29.46-8.42 13 13 0 1 0-13.67-22.12 29.64 29.64 0 0 1-15.79 4.54c-12.48 0-23.35-7.85-28.94-19.39h134.13c7.16 26.19 29.8 45.39 56.56 45.39a56 56 0 0 0 29.46-8.42 13 13 0 0 0-13.67-22.12 29.64 29.64 0 0 1-15.79 4.54c-12.48 0-23.35-7.85-28.94-19.39H900a34.18 34.18 0 0 1 34 34v162.8H90V255.32a33.74 33.74 0 0 1 10-23.99z m656.5 213.82v124.46h-145V445.15z m-172 124.46h-145V445.15h145z m0 27V721.1h-145V596.64z m-172-27h-145V445.15h145z m-172 0H90V445.15h150.46z m0 27V721.1H90V596.64z m27 0h145V721.1h-145z m145 151.49v109.33h-145v-109.3z m27 0h145v109.33h-145z m172 0h145v109.33h-145z m0-27V596.64h145V721.1z m172-124.46H934V721.1H783.54z m0-27V445.15H934v124.46zM90 853.43v-105.3h150.46v109.3H94a4.1 4.1 0 0 1-4-4z m840 4H783.54v-109.3H934v105.3a4.1 4.1 0 0 1-4 4z" fill="#512C56" p-id="3232"></path></svg>