<?xml version="1.0" standalone="no"?><!DOCTYPE svg PUBLIC "-//W3C//DTD SVG 1.1//EN" "http://www.w3.org/Graphics/SVG/1.1/DTD/svg11.dtd"><svg t="1547016453394" class="icon" style="" viewBox="0 0 1024 1024" version="1.1" xmlns="http://www.w3.org/2000/svg" p-id="1285" xmlns:xlink="http://www.w3.org/1999/xlink" width="200" height="200"><defs><style type="text/css"></style></defs><path d="M306 325.5c-30.9 0-56-25.1-56-56V120.2c0-30.9 25.1-56 56-56s56 25.1 56 56v149.3c0 30.9-25.1 56-56 56z m0-223.9c-10.3 0-18.7 8.4-18.7 18.6v149.3c0 10.3 8.4 18.7 18.7 18.7s18.7-8.4 18.7-18.7V120.2c0-10.3-8.4-18.6-18.7-18.6zM716.7 325.5c-30.9 0-56-25.1-56-56V120.2c0-30.9 25.1-56 56-56s56 25.1 56 56v149.3c0 30.9-25.2 56-56 56z m0-223.9c-10.3 0-18.7 8.4-18.7 18.6v149.3c0 10.3 8.4 18.7 18.7 18.7 10.3 0 18.7-8.4 18.7-18.7V120.2c-0.1-10.3-8.4-18.6-18.7-18.6zM828.7 586.9h-112c-10.3 0-18.7-8.4-18.7-18.7v-112c0-10.3 8.4-18.7 18.7-18.7h112c10.3 0 18.7 8.4 18.7 18.7v112c-0.1 10.3-8.4 18.7-18.7 18.7z m-93.4-37.3H810v-74.7h-74.7v74.7zM306 810.9H194c-10.3 0-18.7-8.4-18.7-18.7v-112c0-10.3 8.4-18.7 18.7-18.7h112c10.3 0 18.7 8.4 18.7 18.7v112c0 10.3-8.4 18.7-18.7 18.7z m-93.3-37.3h74.7v-74.7h-74.7v74.7zM567.3 810.9h-112c-10.3 0-18.7-8.4-18.7-18.7v-112c0-10.3 8.4-18.7 18.7-18.7h112c10.3 0 18.7 8.4 18.7 18.7v112c0 10.3-8.4 18.7-18.7 18.7zM474 773.6h74.7v-74.7H474v74.7zM828.7 810.9h-112c-10.3 0-18.7-8.4-18.7-18.7v-112c0-10.3 8.4-18.7 18.7-18.7h112c10.3 0 18.7 8.4 18.7 18.7v112c-0.1 10.3-8.4 18.7-18.7 18.7z m-93.4-37.3H810v-74.7h-74.7v74.7z" fill="#231815" p-id="1286"></path><path d="M940.7 960.2H82c-10.3 0-18.7-8.4-18.7-18.7V194.9c0-10.3 8.4-18.7 18.7-18.7h186.7c10.3 0 18.7 8.4 18.7 18.7s-8.4 18.7-18.7 18.7h-168v709.3H922V213.6H754c-10.3 0-18.7-8.4-18.7-18.7s8.4-18.7 18.7-18.7h186.7c10.3 0 18.7 8.4 18.7 18.7v746.7c-0.1 10.3-8.4 18.6-18.7 18.6z" fill="#231815" p-id="1287"></path><path d="M679.3 213.6h-336c-10.3 0-18.7-8.4-18.7-18.7s8.4-18.7 18.7-18.7h336c10.3 0 18.7 8.4 18.7 18.7s-8.4 18.7-18.7 18.7z" fill="#231815" p-id="1288"></path><path d="M455.3 194.9h-112v74.6c0 20.6-16.7 37.3-37.3 37.3-20.6 0-37.3-16.7-37.3-37.3v-74.6H82v445.9c429.3 0 373.3-445.9 373.3-445.9z" fill="#0D4FF7" p-id="1289"></path><path d="M82 659.4c-10.3 0-18.7-8.4-18.7-18.7V194.9c0-10.3 8.4-18.7 18.7-18.7h186.7c10.3 0 18.7 8.4 18.7 18.7v74.6c0 10.3 8.4 18.7 18.7 18.7s18.7-8.4 18.7-18.7v-74.6c0-10.3 8.4-18.7 18.7-18.7h112c9.4 0 17.3 7 18.5 16.3 1.1 8.7 25.3 214.1-95.4 350.9-68 77-167.8 116-296.6 116z m18.7-445.8v408.3c108.5-3.5 192.4-38.1 249.7-102.9 91-103 90.6-255.6 87.8-305.4H362v56c0 30.9-25.1 56-56 56s-56-25.1-56-56v-56H100.7z" fill="#231815" p-id="1290"></path><path d="M343.3 213.6h-74.7c-10.3 0-18.7-8.4-18.7-18.7v-74.7c0-30.9 25.1-56 56-56s56 25.1 56 56v74.7c0.1 10.3-8.3 18.7-18.6 18.7z m-56-37.4h37.3v-56c0-10.3-8.4-18.6-18.7-18.6s-18.7 8.4-18.7 18.6v56z" fill="#231815" p-id="1291"></path><path d="M306 306.9c20.6 0 37.3-16.7 37.3-37.3V195h-74.7v74.6c0.1 20.5 16.8 37.3 37.4 37.3z" fill="#0D4FF7" p-id="1292"></path><path d="M306 325.5c-30.9 0-56-25.1-56-56v-74.6c0-10.3 8.4-18.7 18.7-18.7h74.7c10.3 0 18.7 8.4 18.7 18.7v74.6c-0.1 30.9-25.2 56-56.1 56z m-18.7-111.9v56c0 10.3 8.4 18.7 18.7 18.7s18.7-8.4 18.7-18.7v-56h-37.4zM716.7 325.5c-30.9 0-56-25.1-56-56V120.2c0-30.9 25.1-56 56-56s56 25.1 56 56v149.3c0 30.9-25.2 56-56 56z m0-223.9c-10.3 0-18.7 8.4-18.7 18.6v149.3c0 10.3 8.4 18.7 18.7 18.7 10.3 0 18.7-8.4 18.7-18.7V120.2c-0.1-10.3-8.4-18.6-18.7-18.6zM828.7 586.9h-112c-10.3 0-18.7-8.4-18.7-18.7v-112c0-10.3 8.4-18.7 18.7-18.7h112c10.3 0 18.7 8.4 18.7 18.7v112c-0.1 10.3-8.4 18.7-18.7 18.7z m-93.4-37.3H810v-74.7h-74.7v74.7zM306 810.9H194c-10.3 0-18.7-8.4-18.7-18.7v-112c0-10.3 8.4-18.7 18.7-18.7h112c10.3 0 18.7 8.4 18.7 18.7v112c0 10.3-8.4 18.7-18.7 18.7z m-93.3-37.3h74.7v-74.7h-74.7v74.7zM567.3 810.9h-112c-10.3 0-18.7-8.4-18.7-18.7v-112c0-10.3 8.4-18.7 18.7-18.7h112c10.3 0 18.7 8.4 18.7 18.7v112c0 10.3-8.4 18.7-18.7 18.7zM474 773.6h74.7v-74.7H474v74.7zM828.7 810.9h-112c-10.3 0-18.7-8.4-18.7-18.7v-112c0-10.3 8.4-18.7 18.7-18.7h112c10.3 0 18.7 8.4 18.7 18.7v112c-0.1 10.3-8.4 18.7-18.7 18.7z m-93.4-37.3H810v-74.7h-74.7v74.7z" fill="#231815" p-id="1293"></path></svg>