<svg data-v-1084b650="" xmlns="http://www.w3.org/2000/svg" viewBox="0 0 300 300"><!----> <!----> <rect data-v-1084b650="" fill="#ffffff" x="0" y="0" width="300px" height="300px" class="logo-background-square"></rect> <!----> <g data-v-1084b650="" id="56dd0624-6b30-6eea-9fdc-07726baeb41d" fill="#000000" transform="matrix(4.599999999999999,0,0,4.599999999999999,31.11299867630008,167.8503070831299)"><path d="M3.39 6.29L7.27 13.89L9.23 3.78L8.25 3.78L6.89 10.78L3.02 3.18L1.05 13.30L2.03 13.30ZM10.46 13.30L12.31 3.78L11.33 3.78L9.48 13.30ZM13.47 4.66L15.78 4.66L14.10 13.27L15.08 13.27L16.76 4.66L19.07 4.66L19.25 3.75L16.94 3.75L15.96 3.75L13.65 3.75ZM30.81 8.54C30.95 7.85 30.94 7.22 30.80 6.64C30.66 6.05 30.42 5.54 30.06 5.12C29.69 4.70 29.23 4.38 28.69 4.14C28.14 3.91 27.52 3.78 26.84 3.78L24.35 3.78L22.50 13.30L24.99 13.30C25.68 13.30 26.33 13.17 26.98 12.94C27.62 12.70 28.21 12.38 28.73 11.96C29.25 11.54 29.69 11.03 30.06 10.44C30.42 9.86 30.67 9.23 30.81 8.54ZM29.86 8.54C29.65 9.63 29.09 10.53 28.18 11.26C27.30 11.97 26.32 12.32 25.21 12.32L23.67 12.32L25.14 4.76L26.68 4.76C27.79 4.76 28.63 5.11 29.25 5.82C29.88 6.55 30.07 7.45 29.86 8.54ZM33.19 9.80L35.77 5.42L36.65 9.80ZM38.42 13.30L36.22 3.12L30.06 13.30L31.12 13.30L32.65 10.71L36.83 10.71L37.35 13.30ZM39.23 4.66L41.54 4.66L39.86 13.27L40.84 13.27L42.52 4.66L44.83 4.66L45.01 3.75L42.70 3.75L41.72 3.75L39.41 3.75ZM45.42 9.80L47.99 5.42L48.87 9.80ZM50.64 13.30L48.44 3.12L42.28 13.30L43.34 13.30L44.87 10.71L49.06 10.71L49.57 13.30Z"></path></g> <linearGradient data-v-1084b650="" gradientTransform="rotate(25)" id="641a4d9d-9984-d5eb-f933-13a5f95c3718" x1="0%" y1="0%" x2="100%" y2="0%"><stop data-v-1084b650="" offset="0%" style="stop-color: rgb(233, 13, 218); stop-opacity: 1;"></stop> <stop data-v-1084b650="" offset="100%" style="stop-color: rgb(21, 207, 241); stop-opacity: 1;"></stop></linearGradient> <g data-v-1084b650="" id="34256db9-4dfa-d5f6-3305-953f377deec4" fill="url(#641a4d9d-9984-d5eb-f933-13a5f95c3718)" stroke="none" transform="matrix(0.3538714436122349,0,0,0.3538714436122349,96.91928345816477,64.71698243277415)"><svg xmlns="http://www.w3.org/2000/svg" xmlns:xlink="http://www.w3.org/1999/xlink" version="1.1" x="0px" y="0px" viewBox="0 0 30 30" xml:space="preserve"><g transform="translate(-450 -440)"><g xmlns="http://www.w3.org/2000/svg" xmlns:xlink="http://www.w3.org/1999/xlink"><path d="M455,455c0-5.31,4.166-9.656,9.4-9.971l1.517-1.982C465.613,443.023,465.31,443,465,443c-6.627,0-12,5.373-12,12    c0,4.391,2.365,8.219,5.884,10.31l0.521-2.027C456.749,461.484,455,458.441,455,455z"></path><path d="M471.074,444.664l-0.549,2.008C473.22,448.467,475,451.527,475,455c0,5.31-4.166,9.656-9.4,9.969l-1.518,1.984    C464.387,466.977,464.69,467,465,467c6.627,0,12-5.373,12-12C477,450.592,474.616,446.75,471.074,444.664z"></path><polygon points="473,452 467,452 467.588,449.842 468.712,445.723 469.24,443.785 470,441 468.142,443.43 466.81,445.172     463.482,449.523 457,458 463,458 462.415,460.145 461.288,464.277 460.76,466.215 460,469 461.858,466.57 463.19,464.828     466.56,460.42   "></polygon></g></g></svg></g></svg>