<svg data-v-1084b650="" xmlns="http://www.w3.org/2000/svg" viewBox="0 0 300 300"><!----> <!----> <rect data-v-1084b650="" fill="#000" x="0" y="0" width="300px" height="300px" class="logo-background-square"></rect> <!----> <linearGradient data-v-1084b650="" gradientTransform="rotate(25)" id="8f9bf1e7-961a-5918-6605-51c2562756b7" x1="0%" y1="0%" x2="100%" y2="0%"><stop data-v-1084b650="" offset="0%" style="stop-color: rgb(233, 13, 218); stop-opacity: 1;"></stop> <stop data-v-1084b650="" offset="100%" style="stop-color: rgb(21, 207, 241); stop-opacity: 1;"></stop></linearGradient> <g data-v-1084b650="" id="2b2788c1-48c0-d6b5-5c5b-0a99117ceb13" fill="url(#8f9bf1e7-961a-5918-6605-51c2562756b7)" stroke="none" transform="matrix(0.7499999999999998,0,0,0.7499999999999998,37.50000000000003,37.50000000000003)"><svg xmlns="http://www.w3.org/2000/svg" xmlns:xlink="http://www.w3.org/1999/xlink" version="1.1" x="0px" y="0px" viewBox="0 0 30 30" xml:space="preserve"><g transform="translate(-450 -440)"><g xmlns="http://www.w3.org/2000/svg" xmlns:xlink="http://www.w3.org/1999/xlink"><path d="M455,455c0-5.31,4.166-9.656,9.4-9.971l1.517-1.982C465.613,443.023,465.31,443,465,443c-6.627,0-12,5.373-12,12    c0,4.391,2.365,8.219,5.884,10.31l0.521-2.027C456.749,461.484,455,458.441,455,455z"></path><path d="M471.074,444.664l-0.549,2.008C473.22,448.467,475,451.527,475,455c0,5.31-4.166,9.656-9.4,9.969l-1.518,1.984    C464.387,466.977,464.69,467,465,467c6.627,0,12-5.373,12-12C477,450.592,474.616,446.75,471.074,444.664z"></path><polygon points="473,452 467,452 467.588,449.842 468.712,445.723 469.24,443.785 470,441 468.142,443.43 466.81,445.172     463.482,449.523 457,458 463,458 462.415,460.145 461.288,464.277 460.76,466.215 460,469 461.858,466.57 463.19,464.828     466.56,460.42   "></polygon></g></g></svg></g></svg>